<?xml version="1.0" standalone="no"?>
<!DOCTYPE svg PUBLIC "-//W3C//DTD SVG 20010904//EN"
 "http://www.w3.org/TR/2001/REC-SVG-20010904/DTD/svg10.dtd">
<svg version="1.0" xmlns="http://www.w3.org/2000/svg"
 width="398.000000pt" height="250.000000pt" viewBox="0 0 398.000000 250.000000"
 preserveAspectRatio="xMidYMid meet">

<g transform="translate(0.000000,250.000000) scale(0.100000,-0.100000)"
fill="#000000" stroke="none">
<path d="M1868 1960 c-343 -63 -594 -290 -690 -627 -32 -112 -32 -314 0 -426
88 -309 300 -521 609 -609 112 -32 314 -32 426 0 309 88 521 300 609 609 32
112 32 314 0 426 -88 307 -301 521 -604 607 -82 24 -272 35 -350 20z m532
-413 c0 -8 -12 -24 -26 -38 -25 -23 -31 -24 -237 -30 -187 -5 -218 -8 -259
-26 -68 -31 -127 -90 -160 -158 -25 -54 -28 -71 -28 -163 l0 -103 184 3 185 3
30 29 c55 52 48 55 -136 58 l-168 3 1 50 c2 55 28 117 66 152 51 48 82 53 323
53 154 0 225 -3 225 -11 0 -6 -13 -24 -29 -40 l-29 -29 -182 0 c-194 0 -233
-7 -264 -51 -9 -13 -16 -27 -16 -31 0 -4 75 -9 168 -10 l167 -3 3 -35 c8 -83
-45 -166 -133 -206 -46 -22 -63 -24 -221 -24 l-172 0 -4 -104 c-3 -94 -6 -108
-27 -130 -14 -14 -33 -26 -43 -26 -17 0 -18 15 -18 263 0 329 12 381 107 488
49 54 110 94 176 114 61 20 517 21 517 2z m-16 -343 c37 -14 6 -171 -53 -262
-81 -126 -214 -181 -441 -182 -96 0 -117 8 -102 36 24 46 42 52 172 56 149 5
193 22 265 99 54 58 80 113 90 189 4 30 9 58 12 63 5 9 35 9 57 1z"/>
</g>
</svg>
